<?xml version="1.0" encoding="UTF-8" standalone="no"?>
<svg
   xmlns:dc="http://purl.org/dc/elements/1.1/"
   xmlns:cc="http://creativecommons.org/ns#"
   xmlns:rdf="http://www.w3.org/1999/02/22-rdf-syntax-ns#"
   xmlns:svg="http://www.w3.org/2000/svg"
   xmlns="http://www.w3.org/2000/svg"
   xmlns:sodipodi="http://sodipodi.sourceforge.net/DTD/sodipodi-0.dtd"
   xmlns:inkscape="http://www.inkscape.org/namespaces/inkscape"
   id="svg4569"
   version="1.1"
   viewBox="0 0 135.46666 135.46667"
   height="512"
   width="512"
   sodipodi:docname="ic_launcher_foreground.svg"
   inkscape:version="0.92.2 (5c3e80d, 2017-08-06)"
   inkscape:label="Logo">
  <metadata
     id="metadata4490">
    <rdf:RDF>
      <cc:Work
         rdf:about="">
        <dc:format>image/svg+xml</dc:format>
        <dc:type
           rdf:resource="http://purl.org/dc/dcmitype/StillImage" />
        <dc:title />
      </cc:Work>
    </rdf:RDF>
  </metadata>
  <sodipodi:namedview
     pagecolor="#ffffff"
     bordercolor="#666666"
     borderopacity="1"
     objecttolerance="10"
     gridtolerance="10"
     guidetolerance="10"
     inkscape:pageopacity="0"
     inkscape:pageshadow="2"
     inkscape:window-width="1842"
     inkscape:window-height="1051"
     id="namedview4517"
     showgrid="false"
     inkscape:zoom="0.4609375"
     inkscape:cx="256"
     inkscape:cy="256"
     inkscape:window-x="69"
     inkscape:window-y="-9"
     inkscape:window-maximized="1"
     inkscape:current-layer="layer1"
     inkscape:pagecheckerboard="true" />
  <defs
     id="defs4563" />
  <g
     inkscape:groupmode="layer"
     id="layer3"
     inkscape:label="Shadow"
     style="display:inline">
    <rect
       y="-156.75055"
       x="-20.281872"
       height="66.145798"
       width="16.668749"
       id="rect831"
       style="fill:#000000;fill-opacity:1"
       transform="rotate(135)" />
    <rect
       y="-156.75058"
       x="3.6131747"
       height="66.145798"
       width="16.668749"
       id="rect831-8"
       style="fill:#000000;fill-opacity:1"
       transform="rotate(135)" />
  </g>
  <g
     inkscape:groupmode="layer"
     id="layer1"
     inkscape:label="Logo"
     style="display:inline">
    <path
       inkscape:connector-curvature="0"
       id="path839"
       d="m 90.788011,73.553914 c -3.399941,3.411255 -5.293086,5.153588 -5.695585,5.241996 -0.355613,0.07813 -0.857265,-0.0017 -1.223047,-0.194517 -0.34108,-0.179814 -2.770241,-2.489605 -5.398137,-5.132862 -4.770774,-4.798677 -4.777996,-4.807384 -4.777995,-5.771639 0,-0.964243 0.0075,-0.972962 4.777995,-5.771638 2.627898,-2.643256 5.057057,-4.953042 5.398146,-5.132865 0.365781,-0.192832 0.867433,-0.272613 1.223046,-0.194508 0.402501,0.0884 2.295615,1.830755 5.695585,5.241994 4.644782,4.660183 5.092686,5.175318 5.092688,5.857015 -7e-6,0.6817 -0.4479,1.19683 -5.092696,5.857024 z"
       style="fill:#ffffff;fill-opacity:1" />
    <path
       inkscape:connector-curvature="0"
       id="path837"
       d="m 78.757409,85.375382 c -0.10233,0.241602 -2.448815,2.688228 -5.214425,5.436946 -4.579995,4.552021 -5.09498,4.997683 -5.775355,4.997891 -0.681198,2.07e-4 -1.196711,-0.448005 -5.853451,-5.089344 -3.409173,-3.397859 -5.150393,-5.289892 -5.238645,-5.692247 -0.07794,-0.355475 0.0017,-0.85699 0.194835,-1.222725 0.179861,-0.341028 2.489676,-2.770147 5.132926,-5.398041 4.798653,-4.770778 4.807367,-4.777994 5.771323,-4.778286 0.963945,-2.93e-4 0.972652,0.0071 5.768401,4.774769 2.641646,2.626288 4.943723,5.04187 5.115721,5.367985 0.350401,0.664369 0.368902,0.964982 0.09867,1.603052 z"
       style="fill:#ffffff;fill-opacity:1" />
    <path
       inkscape:connector-curvature="0"
       id="path835"
       d="m 78.562949,51.777976 c -0.232829,0.362371 -2.5399,2.759147 -5.126819,5.326169 -6.239891,6.191892 -5.089709,6.202657 -11.436263,-0.106984 -2.641483,-2.626124 -4.949688,-5.053689 -5.129333,-5.394578 -0.192676,-0.365575 -0.272299,-0.866993 -0.194138,-1.222468 0.08846,-0.402353 1.830532,-2.295087 5.241152,-5.694435 4.662641,-4.64724 5.173969,-5.091789 5.856986,-5.091954 0.683381,-1.66e-4 1.192237,0.44307 5.859551,5.103883 5.525476,5.517839 5.737343,5.822111 4.928864,7.080367 z"
       style="fill:#ffffff;fill-opacity:1" />
    <path
       inkscape:connector-curvature="0"
       id="path4542"
       d="m 57.06399,73.468531 c -2.627898,2.643256 -5.057054,4.953052 -5.398137,5.132862 -0.365781,0.192832 -0.867433,0.272622 -1.223047,0.194517 -0.402493,-0.08841 -2.295622,-1.830764 -5.695584,-5.241996 -4.644795,-4.660195 -5.092695,-5.175327 -5.09269,-5.857025 -8e-6,-0.681698 0.447902,-1.196829 5.092689,-5.857014 3.399944,-3.411257 5.293082,-5.153598 5.695577,-5.241994 0.355613,-0.07813 0.857274,0.0017 1.223046,0.194508 0.341088,0.179823 2.77025,2.489609 5.398146,5.132865 4.770785,4.798674 4.777994,4.807396 4.777994,5.771639 0,0.964252 -0.0075,0.972961 -4.777994,5.771638 z"
       style="fill:#ffffff;fill-opacity:1" />
  </g>
</svg>
