<?xml version="1.0" encoding="UTF-8" standalone="no"?>
<svg
   id="svg4569"
   version="1.1"
   viewBox="0 0 135.46666 135.46667"
   height="512"
   width="512"
   sodipodi:docname="ic_launcher_foreground.svg"
   inkscape:version="1.2.1 (9c6d41e410, 2022-07-14, custom)"
   inkscape:label="Logo"
   xmlns:inkscape="http://www.inkscape.org/namespaces/inkscape"
   xmlns:sodipodi="http://sodipodi.sourceforge.net/DTD/sodipodi-0.dtd"
   xmlns:xlink="http://www.w3.org/1999/xlink"
   xmlns="http://www.w3.org/2000/svg"
   xmlns:svg="http://www.w3.org/2000/svg"
   xmlns:rdf="http://www.w3.org/1999/02/22-rdf-syntax-ns#"
   xmlns:cc="http://creativecommons.org/ns#"
   xmlns:dc="http://purl.org/dc/elements/1.1/">
  <metadata
     id="metadata4490">
    <rdf:RDF>
      <cc:Work
         rdf:about="">
        <dc:format>image/svg+xml</dc:format>
        <dc:type
           rdf:resource="http://purl.org/dc/dcmitype/StillImage" />
        <dc:title />
      </cc:Work>
    </rdf:RDF>
  </metadata>
  <sodipodi:namedview
     pagecolor="#ffffff"
     bordercolor="#666666"
     borderopacity="1"
     objecttolerance="10"
     gridtolerance="10"
     guidetolerance="10"
     inkscape:pageopacity="0"
     inkscape:pageshadow="2"
     inkscape:window-width="1583"
     inkscape:window-height="1291"
     id="namedview4517"
     showgrid="false"
     inkscape:zoom="1.84375"
     inkscape:cx="292.33898"
     inkscape:cy="257.35593"
     inkscape:window-x="26"
     inkscape:window-y="23"
     inkscape:window-maximized="0"
     inkscape:current-layer="layer3"
     inkscape:pagecheckerboard="true"
     inkscape:showpageshadow="2"
     inkscape:deskcolor="#d1d1d1" />
  <defs
     id="defs4563">
    <linearGradient
       inkscape:collect="always"
       id="linearGradient4758">
      <stop
         style="stop-color:#616161;stop-opacity:1;"
         offset="0"
         id="stop4754" />
      <stop
         style="stop-color:#000000;stop-opacity:0;"
         offset="1"
         id="stop4756" />
    </linearGradient>
    <linearGradient
       inkscape:collect="always"
       id="linearGradient4637">
      <stop
         style="stop-color:#5d5d5d;stop-opacity:1;"
         offset="0"
         id="stop4633" />
      <stop
         style="stop-color:#000000;stop-opacity:0;"
         offset="1"
         id="stop4635" />
    </linearGradient>
    <linearGradient
       inkscape:collect="always"
       xlink:href="#linearGradient4758"
       id="linearGradient4683"
       gradientUnits="userSpaceOnUse"
       gradientTransform="matrix(1.4,0,0,1.4,-11.29052,116.07171)"
       x1="70.670776"
       y1="-71.16294"
       x2="136.81661"
       y2="-71.16294" />
    <linearGradient
       inkscape:collect="always"
       xlink:href="#linearGradient4637"
       id="linearGradient4762"
       gradientUnits="userSpaceOnUse"
       gradientTransform="matrix(1.4,0,0,1.4,-12.502861,82.784048)"
       x1="70.670776"
       y1="-71.16294"
       x2="136.81661"
       y2="-71.16294" />
  </defs>
  <g
     inkscape:groupmode="layer"
     id="layer3"
     inkscape:label="Shadow"
     style="display:inline">
    <rect
       y="-28.512192"
       x="86.436226"
       height="23.336248"
       width="92.604172"
       id="rect831"
       style="opacity:0.28237017;fill:url(#linearGradient4762);fill-opacity:1;fill-rule:evenodd;stroke-width:1.4"
       transform="rotate(45)" />
    <rect
       y="4.7754741"
       x="87.648575"
       height="23.336248"
       width="92.604172"
       id="rect831-7"
       style="display:inline;opacity:0.28237017;fill:url(#linearGradient4683);fill-opacity:1;fill-rule:evenodd;stroke-width:1.4"
       transform="rotate(45)" />
  </g>
  <g
     inkscape:groupmode="layer"
     id="layer1"
     inkscape:label="Logo"
     style="display:inline">
    <path
       inkscape:connector-curvature="0"
       id="path839"
       d="m 99.563795,75.354567 c -4.759918,4.775757 -7.410321,7.215023 -7.973819,7.338794 -0.497858,0.109382 -1.200171,-0.0024 -1.712266,-0.272323 -0.477512,-0.25174 -3.878337,-3.485447 -7.557392,-7.186007 -6.679083,-6.718148 -6.689194,-6.730338 -6.689193,-8.080295 0,-1.34994 0.0105,-1.362147 6.689193,-8.080293 3.679057,-3.700558 7.07988,-6.934259 7.557405,-7.186011 0.512093,-0.269965 1.214406,-0.381658 1.712264,-0.272311 0.563501,0.12376 3.213861,2.563057 7.973819,7.338791 6.502694,6.524257 7.129764,7.245446 7.129764,8.199821 -10e-6,0.95438 -0.62706,1.675562 -7.129775,8.199834 z"
       style="fill:#ffffff;fill-opacity:1;stroke-width:1.4" />
    <path
       inkscape:connector-curvature="0"
       id="path837"
       d="m 82.720952,91.904622 c -0.143262,0.338243 -3.428341,3.763519 -7.300195,7.611725 -6.411993,6.372833 -7.132972,6.996763 -8.085497,6.997053 -0.953677,2.9e-4 -1.675395,-0.62721 -8.194831,-7.125088 -4.772843,-4.757002 -7.210551,-7.405848 -7.334103,-7.969145 -0.109116,-0.497665 0.0024,-1.199786 0.272769,-1.711815 0.251805,-0.47744 3.485546,-3.878206 7.186096,-7.557258 6.718114,-6.679089 6.730314,-6.689191 8.079852,-6.6896 1.349523,-4.1e-4 1.361713,0.0099 8.075762,6.684676 3.698304,3.676804 6.921212,7.058618 7.162009,7.515179 0.490561,0.930117 0.516463,1.350975 0.138138,2.244273 z"
       style="fill:#ffffff;fill-opacity:1;stroke-width:1.4" />
    <path
       inkscape:connector-curvature="0"
       id="path835"
       d="m 82.448708,44.868254 c -0.325961,0.507319 -3.55586,3.862806 -7.177547,7.456636 -8.735847,8.668649 -7.125592,8.68372 -16.010768,-0.149777 -3.698076,-3.676574 -6.929563,-7.075165 -7.181066,-7.552409 -0.269746,-0.511805 -0.381219,-1.213791 -0.271793,-1.711456 0.123844,-0.563294 2.562745,-3.213121 7.337613,-7.972209 6.527697,-6.506136 7.243556,-7.128504 8.19978,-7.128735 0.956733,-2.33e-4 1.669132,0.620298 8.203371,7.145436 7.735667,7.724975 8.032281,8.150955 6.90041,9.912514 z"
       style="fill:#ffffff;fill-opacity:1;stroke-width:1.4" />
    <path
       inkscape:connector-curvature="0"
       id="path4542"
       d="m 52.350165,75.235031 c -3.679057,3.700558 -7.079875,6.934273 -7.557391,7.186007 -0.512094,0.269964 -1.214407,0.38167 -1.712266,0.272323 -0.56349,-0.123774 -3.213871,-2.563069 -7.973818,-7.338794 -6.502713,-6.524273 -7.129773,-7.245458 -7.129766,-8.199835 -1.1e-5,-0.954377 0.627063,-1.675561 7.129765,-8.19982 4.759921,-4.775759 7.410315,-7.215037 7.973808,-7.338791 0.497858,-0.109382 1.200183,0.0024 1.712264,0.272311 0.477523,0.251752 3.87835,3.485453 7.557404,7.186011 6.679099,6.718144 6.689192,6.730354 6.689192,8.080295 0,1.349952 -0.0105,1.362145 -6.689192,8.080293 z"
       style="fill:#ffffff;fill-opacity:1;stroke-width:1.4" />
  </g>
</svg>
